<mxfile host="app.diagrams.net" modified="2024-07-05T14:13:30.058Z" agent="Mozilla/5.0 (Windows NT 10.0; Win64; x64) AppleWebKit/537.36 (KHTML, like Gecko) Chrome/126.0.0.0 Safari/537.36" version="24.6.4" etag="b6G7rXh9x94JFUt-0aqp" type="github">
  <diagram name="Page-1" id="32DqOrLQi8ubs-kYopTL">
    <mxGraphModel>
      <root>
        <mxCell id="0" />
        <mxCell id="1" parent="0" />
      </root>
    </mxGraphModel>
  </diagram>
</mxfile>
